#!OML:ASF H:\Terrain\Patient Classification 1\Animal2\Wednesday\Animal2.ASF
:FULLY-SPECIFIED
:DEGREES
4283
root -3.03697 17.7513 -10.3764 383.02 -35.0108 -353.528
lowerback 19.2596 -2.78407 0.0655836
upperback -3.11455 -3.52754 1.28468
thorax -14.3275 -1.54168 2.51381
lowerneck -1.33141 4.73676 15.1892
upperneck -26.2787 1.32835 -26.9011
head -6.91227 1.1524 -12.4597
rclavicle 9.38264e-014 -2.98177e-014
rhumerus -66.1602 -25.7701 -21.2457
rradius 17.9819
rwrist 26.9231
rhand -3.75119 23.3855
rfingers 7.12502
rthumb 21.9929 -5.38415
lclavicle 9.38264e-014 -2.98177e-014
lhumerus -62.662 11.9233 47.6713
lradius 24.9282
lwrist 24.0654
lhand -8.06801 32.348
lfingers 7.12502
lthumb 17.8434 61.5494
rfemur -42.694 13.7101 0.00283526
rtibia 33.9322
rfoot -24.1781 -10.9496
rtoes -8.93309
lfemur -50.0475 -2.55589 -6.47379
ltibia 63.5989
lfoot 14.7032 -3.57965
ltoes -27.8052
4284
root -3.06667 17.7492 -10.3321 383.652 -35.1611 -353.803
lowerback 18.9786 -2.60298 0.273801
upperback -3.05659 -3.25646 1.14672
thorax -14.1213 -1.4482 2.13746
lowerneck -1.71087 5.22004 15.8231
upperneck -25.817 2.02109 -27.5798
head -6.46461 1.46705 -12.791
rclavicle 1.01579e-013 5.48646e-014
rhumerus -65.079 -25.4466 -21.3022
rradius 18.102
rwrist 25.2146
rhand -5.77068 22.8691
rfingers 7.12502
rthumb 20.0528 -6.11606
lclavicle 1.01579e-013 5.48646e-014
lhumerus -62.0596 11.3252 47.0793
lradius 24.7886
lwrist 24.4581
lhand -9.87569 32.1013
lfingers 7.12502
lthumb 16.1034 61.4522
rfemur -43.0419 13.3969 0.268135
rtibia 33.8005
rfoot -23.8398 -10.6791
rtoes -9.25794
lfemur -51.3434 -2.05364 -6.66391
ltibia 63.8155
lfoot 13.9737 -1.56797
ltoes -18.1879
4285
root -3.10337 17.7503 -10.2861 383.825 -35.1256 -353.979
lowerback 19.167 -2.56465 0.347355
upperback -3.07418 -3.18049 1.18147
thorax -14.2588 -1.41429 2.12331
lowerneck -1.33278 5.69317 16.244
upperneck -25.4811 2.72329 -28.4695
head -6.18707 1.8715 -13.2089
rclavicle 2.68359e-014 -5.92378e-014
rhumerus -63.5756 -24.417 -21.7659
rradius 18.315
rwrist 23.8974
rhand -8.9963 21.4091
rfingers 7.12502
rthumb 16.95 -7.87128
lclavicle 2.68359e-014 -5.92378e-014
lhumerus -62.0583 10.8094 46.5842
lradius 24.6846
lwrist 24.7315
lhand -11.6542 31.7519
lfingers 7.12502
lthumb 14.3902 61.2331
rfemur -42.8299 13.1161 0.670892
rtibia 33.6608
rfoot -23.5178 -10.6999
rtoes -10.8693
lfemur -52.2098 -1.77162 -6.95611
ltibia 63.8397
lfoot 13.4569 -1.73621
ltoes -20.123
4286
root -3.13971 17.7525 -10.2383 383.929 -35.048 -354.05
lowerback 19.2781 -2.458 0.363557
upperback -3.02859 -3.03023 1.19841
thorax -14.275 -1.34543 2.09095
lowerneck -0.781108 6.02902 16.2597
upperneck -25.5743 3.21214 -28.9621
head -6.16331 2.19555 -13.4361
rclavicle 1.34975e-013 2.06736e-014
rhumerus -62.5239 -23.9257 -21.4342
rradius 18.5405
rwrist 22.8101
rhand -11.0615 20.4258
rfingers 7.12502
rthumb 14.9612 -9.01385
lclavicle 1.34975e-013 2.06736e-014
lhumerus -61.8538 10.3608 46.1175
lradius 24.6653
lwrist 24.8779
lhand -13.2975 31.9237
lfingers 7.12502
lthumb 12.8064 61.5109
rfemur -42.6224 12.7582 0.988492
rtibia 33.6095
rfoot -23.2513 -10.595
rtoes -12.3056
lfemur -53.1034 -1.5776 -7.30736
ltibia 63.7959
lfoot 13.1447 -2.03586
ltoes -23.4465
4287
root -3.17804 17.7614 -10.1866 384.122 -34.9695 -354.023
lowerback 19.1746 -2.34358 0.340141
upperback -2.97533 -2.89418 1.12611
thorax -14.1566 -1.28788 1.97274
lowerneck 0.00951901 6.33491 15.8926
upperneck -26.0513 3.67838 -28.9582
head -6.35556 2.5301 -13.4289
rclavicle 3.65764e-014 1.19271e-015
rhumerus -61.4689 -23.4749 -21.3205
rradius 18.7189
rwrist 21.2428
rhand -12.5527 19.6309
rfingers 7.12502
rthumb 13.5243 -9.90997
lclavicle 3.65764e-014 1.19271e-015
lhumerus -61.4535 9.71232 45.7403
lradius 24.6345
lwrist 25.2632
lhand -14.7895 32.2334
lfingers 7.12502
lthumb 11.3678 61.9053
rfemur -42.5487 12.4171 1.14733
rtibia 33.6016
rfoot -22.9435 -10.5957
rtoes -13.9855
lfemur -54.1933 -1.44654 -7.69309
ltibia 63.6328
lfoot 12.8357 -1.82814
ltoes -23.1742
4288
root -3.21366 17.7602 -10.1376 384.177 -34.8311 -353.827
lowerback 19.2755 -2.2531 0.211576
upperback -2.97736 -2.82196 0.991914
thorax -14.2215 -1.25027 1.87711
lowerneck 1.18167 6.70522 15.3626
upperneck -26.8564 4.26229 -28.7005
head -6.72318 2.94795 -13.3417
rclavicle -1.64991e-014 5.96354e-015
rhumerus -60.563 -23.1317 -21.0654
rradius 18.8068
rwrist 20.108
rhand -14.8426 18.7914
rfingers 7.12502
rthumb 11.3166 -10.8832
lclavicle -1.64991e-014 5.96354e-015
lhumerus -61.048 8.82988 45.5054
lradius 24.5752
lwrist 25.814
lhand -16.3208 32.1513
lfingers 7.12502
lthumb 9.89062 61.899
rfemur -42.4236 11.9969 1.20327
rtibia 33.6226
rfoot -22.5468 -10.9213
rtoes -17.5806
lfemur -55.1892 -1.3582 -8.21903
ltibia 63.3614
lfoot 12.3128 -1.34391
ltoes -19.7652
4289
root -3.24528 17.7483 -10.0876 384.229 -34.4853 -353.796
lowerback 19.4473 -2.242 0.330486
upperback -2.93915 -2.78206 0.948504
thorax -14.2882 -1.24259 1.75522
lowerneck 2.33367 7.09216 14.8011
upperneck -27.6373 4.83156 -28.5672
head -7.08678 3.36589 -13.3125
rclavicle -3.22031e-014 1.23246e-014
rhumerus -59.6809 -22.927 -20.6038
rradius 18.8705
rwrist 19.3713
rhand -17.0777 18.311
rfingers 7.12502
rthumb 9.16037 -11.47
lclavicle -3.22031e-014 1.23246e-014
lhumerus -60.7545 8.38578 45.0393
lradius 24.5522
lwrist 25.7494
lhand -18.4843 31.5654
lfingers 7.12502
lthumb 7.8029 61.4014
rfemur -42.1504 11.5193 1.47848
rtibia 33.6575
rfoot -22.4074 -11.0585
rtoes -19.2928
lfemur -56.0911 -1.3204 -8.54479
ltibia 62.9651
lfoot 12.0272 -1.25724
ltoes -16.72
4290
root -3.28248 17.7483 -10.0433 384.354 -34.1415 -354.176
lowerback 19.7049 -2.21046 0.617368
upperback -2.75895 -2.65471 1.02828
thorax -14.2416 -1.20356 1.64811
lowerneck 2.17816 7.50907 15.3737
upperneck -27.1556 5.4124 -29.574
head -6.64749 3.68023 -13.7519
rclavicle 1.19271e-014 -2.62396e-014
rhumerus -58.5401 -22.6479 -20.593
rradius 18.9565
rwrist 18.3918
rhand -19.2039 17.5813
rfingers 7.12502
rthumb 7.10838 -12.2793
lclavicle 1.19271e-014 -2.62396e-014
lhumerus -60.373 8.15138 44.5959
lradius 24.5297
lwrist 25.5096
lhand -20.652 31.0783
lfingers 7.12502
lthumb 5.71033 60.9814
rfemur -41.8116 11.5529 2.02253
rtibia 33.682
rfoot -22.3146 -11.0768
rtoes -18.5499
lfemur -56.8764 -1.15109 -8.43485
ltibia 62.4256
lfoot 11.9553 -1.18723
ltoes -12.6098
4291
root -3.32053 17.7524 -9.99635 384.406 -34.0551 -354.48
lowerback 20.0238 -2.06439 0.636157
upperback -2.55414 -2.44516 1.07216
thorax -14.1914 -1.10706 1.6278
lowerneck 0.85759 8.05455 17.3311
upperneck -25.5351 6.21487 -31.6764
head -5.39309 3.96922 -14.7035
rclavicle -2.5842e-014 1.98785e-014
rhumerus -57.5027 -22.7209 -20.2077
rradius 18.914
rwrist 18.1468
rhand -21.2917 16.6106
rfingers 7.12502
rthumb 5.0927 -13.3082
lclavicle -2.5842e-014 1.98785e-014
lhumerus -59.9244 7.88159 44.1898
lradius 24.4539
lwrist 25.1891
lhand -22.0021 31.3053
lfingers 7.12502
lthumb 4.40677 61.2394
rfemur -41.51 11.7157 2.41002
rtibia 33.6618
rfoot -22.1544 -10.9113
rtoes -18.0722
lfemur -57.4502 -0.870131 -8.49891
ltibia 61.7337
lfoot 11.4732 -1.04527
ltoes -10.4056
